<mxfile host="65bd71144e">
    <diagram id="KoE0KHlCnv8TXYffCkJE" name="Page-1">
        <mxGraphModel dx="479" dy="463" grid="1" gridSize="10" guides="1" tooltips="1" connect="1" arrows="1" fold="1" page="1" pageScale="1" pageWidth="827" pageHeight="1169" math="0" shadow="0">
            <root>
                <mxCell id="0"/>
                <mxCell id="1" parent="0"/>
                <mxCell id="8" value="Clase" style="swimlane;fillColor=default;fontStyle=2" parent="1" vertex="1">
                    <mxGeometry x="40" y="40" width="250" height="200" as="geometry">
                        <mxRectangle x="60" y="180" width="130" height="23" as="alternateBounds"/>
                    </mxGeometry>
                </mxCell>
                <mxCell id="10" value="+ attribute1:type = defaultValue&lt;br&gt;+ attribute2:type&lt;br&gt;&lt;div style=&quot;&quot;&gt;&lt;span&gt;-attribute3:type&lt;/span&gt;&lt;/div&gt;" style="rounded=0;whiteSpace=wrap;html=1;fillColor=default;align=left;perimeterSpacing=0;spacingLeft=8;" parent="8" vertex="1">
                    <mxGeometry y="20" width="250" height="90" as="geometry"/>
                </mxCell>
                <mxCell id="13" value="+ operation(params):returnType&lt;br&gt;- operation2(params)&lt;br&gt;- operation3()" style="rounded=0;whiteSpace=wrap;html=1;fillColor=default;align=left;spacingLeft=8;" parent="8" vertex="1">
                    <mxGeometry y="110" width="250" height="90" as="geometry"/>
                </mxCell>
                <mxCell id="14" value="+ and - mean the visibility.&lt;br&gt;&lt;br&gt;- private&lt;br&gt;+ public&lt;br&gt;# protected&lt;br&gt;~ default" style="text;html=1;strokeColor=none;fillColor=none;align=left;verticalAlign=middle;whiteSpace=wrap;rounded=0;" parent="1" vertex="1">
                    <mxGeometry x="40" y="245" width="170" height="90" as="geometry"/>
                </mxCell>
                <mxCell id="15" value="on top you put the attributes" style="text;html=1;strokeColor=none;fillColor=none;align=left;verticalAlign=middle;whiteSpace=wrap;rounded=0;" parent="1" vertex="1">
                    <mxGeometry x="300" y="90" width="170" height="30" as="geometry"/>
                </mxCell>
                <mxCell id="16" value="on the bottom you put the operations" style="text;html=1;strokeColor=none;fillColor=none;align=left;verticalAlign=middle;whiteSpace=wrap;rounded=0;" parent="1" vertex="1">
                    <mxGeometry x="300" y="180" width="230" height="30" as="geometry"/>
                </mxCell>
                <mxCell id="17" value="" style="endArrow=open;html=1;endFill=0;endSize=20;" parent="1" edge="1">
                    <mxGeometry width="50" height="50" relative="1" as="geometry">
                        <mxPoint x="110" y="390" as="sourcePoint"/>
                        <mxPoint x="220" y="390" as="targetPoint"/>
                    </mxGeometry>
                </mxCell>
                <mxCell id="18" value="this arrow means association" style="text;html=1;strokeColor=none;fillColor=none;align=left;verticalAlign=middle;whiteSpace=wrap;rounded=0;" parent="1" vertex="1">
                    <mxGeometry x="75" y="410" width="195" height="30" as="geometry"/>
                </mxCell>
                <mxCell id="19" value="b" style="rounded=1;whiteSpace=wrap;html=1;fillColor=default;" parent="1" vertex="1">
                    <mxGeometry x="220" y="374" width="30" height="30" as="geometry"/>
                </mxCell>
                <mxCell id="20" value="a" style="rounded=1;whiteSpace=wrap;html=1;fillColor=default;" parent="1" vertex="1">
                    <mxGeometry x="80" y="374" width="30" height="30" as="geometry"/>
                </mxCell>
                <mxCell id="21" value="" style="endArrow=open;html=1;endFill=0;endSize=20;" parent="1" edge="1">
                    <mxGeometry width="50" height="50" relative="1" as="geometry">
                        <mxPoint x="110" y="450" as="sourcePoint"/>
                        <mxPoint x="190" y="450" as="targetPoint"/>
                    </mxGeometry>
                </mxCell>
                <mxCell id="22" value="" style="endArrow=block;html=1;endFill=0;endSize=20;startSize=12;" parent="1" edge="1">
                    <mxGeometry width="50" height="50" relative="1" as="geometry">
                        <mxPoint x="117.5" y="616" as="sourcePoint"/>
                        <mxPoint x="197.5" y="616" as="targetPoint"/>
                    </mxGeometry>
                </mxCell>
                <mxCell id="23" value="this arrow means inheritance" style="text;html=1;strokeColor=none;fillColor=none;align=left;verticalAlign=middle;whiteSpace=wrap;rounded=0;" parent="1" vertex="1">
                    <mxGeometry x="77.5" y="576" width="190" height="30" as="geometry"/>
                </mxCell>
                <mxCell id="24" value="a is associated with b&lt;br&gt;it points to the dependency" style="text;html=1;strokeColor=none;fillColor=none;align=left;verticalAlign=middle;whiteSpace=wrap;rounded=0;" parent="1" vertex="1">
                    <mxGeometry x="67.5" y="460" width="132.5" height="70" as="geometry"/>
                </mxCell>
                <mxCell id="27" value="" style="endArrow=block;html=1;endFill=0;endSize=20;" parent="1" edge="1">
                    <mxGeometry width="50" height="50" relative="1" as="geometry">
                        <mxPoint x="117.49999999999989" y="556" as="sourcePoint"/>
                        <mxPoint x="197.5" y="556" as="targetPoint"/>
                    </mxGeometry>
                </mxCell>
                <mxCell id="28" value="a" style="rounded=1;whiteSpace=wrap;html=1;fillColor=default;" parent="1" vertex="1">
                    <mxGeometry x="87.5" y="540" width="30" height="30" as="geometry"/>
                </mxCell>
                <mxCell id="29" value="b" style="rounded=1;whiteSpace=wrap;html=1;fillColor=default;" parent="1" vertex="1">
                    <mxGeometry x="197.5" y="540" width="30" height="30" as="geometry"/>
                </mxCell>
                <mxCell id="30" value="a inherits from b&lt;br&gt;it goes from child&amp;nbsp;&lt;br&gt;to parent" style="text;html=1;strokeColor=none;fillColor=none;align=left;verticalAlign=middle;whiteSpace=wrap;rounded=0;" parent="1" vertex="1">
                    <mxGeometry x="87.5" y="626" width="132.5" height="60" as="geometry"/>
                </mxCell>
                <mxCell id="33" value="" style="endArrow=diamondThin;html=1;endFill=0;endSize=20;" parent="1" edge="1">
                    <mxGeometry width="50" height="50" relative="1" as="geometry">
                        <mxPoint x="115" y="796" as="sourcePoint"/>
                        <mxPoint x="195" y="796" as="targetPoint"/>
                    </mxGeometry>
                </mxCell>
                <mxCell id="34" value="this arrow means agregation" style="text;html=1;strokeColor=none;fillColor=none;align=left;verticalAlign=middle;whiteSpace=wrap;rounded=0;" parent="1" vertex="1">
                    <mxGeometry x="75" y="756" width="190" height="30" as="geometry"/>
                </mxCell>
                <mxCell id="35" value="" style="endArrow=diamondThin;html=1;endFill=0;strokeWidth=1;targetPerimeterSpacing=0;endSize=20;startSize=12;" parent="1" edge="1">
                    <mxGeometry width="50" height="50" relative="1" as="geometry">
                        <mxPoint x="114.99999999999989" y="736" as="sourcePoint"/>
                        <mxPoint x="195" y="736" as="targetPoint"/>
                    </mxGeometry>
                </mxCell>
                <mxCell id="36" value="a" style="rounded=1;whiteSpace=wrap;html=1;fillColor=default;" parent="1" vertex="1">
                    <mxGeometry x="85" y="720" width="30" height="30" as="geometry"/>
                </mxCell>
                <mxCell id="37" value="b" style="rounded=1;whiteSpace=wrap;html=1;fillColor=default;" parent="1" vertex="1">
                    <mxGeometry x="195" y="720" width="30" height="30" as="geometry"/>
                </mxCell>
                <mxCell id="38" value="a contains some elements of b&lt;br&gt;b can function without a&lt;br&gt;" style="text;html=1;strokeColor=none;fillColor=none;align=left;verticalAlign=middle;whiteSpace=wrap;rounded=0;" parent="1" vertex="1">
                    <mxGeometry x="75" y="806" width="185" height="60" as="geometry"/>
                </mxCell>
                <mxCell id="39" value="" style="endArrow=diamondThin;html=1;endFill=1;endSize=20;" parent="1" edge="1">
                    <mxGeometry width="50" height="50" relative="1" as="geometry">
                        <mxPoint x="110" y="956" as="sourcePoint"/>
                        <mxPoint x="190" y="956" as="targetPoint"/>
                    </mxGeometry>
                </mxCell>
                <mxCell id="40" value="this arrow means composition" style="text;html=1;strokeColor=none;fillColor=none;align=left;verticalAlign=middle;whiteSpace=wrap;rounded=0;" parent="1" vertex="1">
                    <mxGeometry x="70" y="916" width="190" height="30" as="geometry"/>
                </mxCell>
                <mxCell id="41" value="" style="endArrow=diamondThin;html=1;endFill=1;strokeWidth=1;targetPerimeterSpacing=0;endSize=20;startSize=12;" parent="1" edge="1">
                    <mxGeometry width="50" height="50" relative="1" as="geometry">
                        <mxPoint x="109.99999999999989" y="896" as="sourcePoint"/>
                        <mxPoint x="190" y="896" as="targetPoint"/>
                    </mxGeometry>
                </mxCell>
                <mxCell id="42" value="a" style="rounded=1;whiteSpace=wrap;html=1;fillColor=default;" parent="1" vertex="1">
                    <mxGeometry x="80" y="880" width="30" height="30" as="geometry"/>
                </mxCell>
                <mxCell id="43" value="b" style="rounded=1;whiteSpace=wrap;html=1;fillColor=default;" parent="1" vertex="1">
                    <mxGeometry x="190" y="880" width="30" height="30" as="geometry"/>
                </mxCell>
                <mxCell id="44" value="a contains some elements of b&lt;br&gt;in this case b cannot function without a&lt;br&gt;" style="text;html=1;strokeColor=none;fillColor=none;align=left;verticalAlign=middle;whiteSpace=wrap;rounded=0;" parent="1" vertex="1">
                    <mxGeometry x="70" y="966" width="185" height="60" as="geometry"/>
                </mxCell>
                <mxCell id="51" style="edgeStyle=none;html=1;endArrow=none;endFill=0;" edge="1" parent="1" source="45">
                    <mxGeometry relative="1" as="geometry">
                        <mxPoint x="650" y="140" as="targetPoint"/>
                        <Array as="points">
                            <mxPoint x="580" y="140"/>
                        </Array>
                    </mxGeometry>
                </mxCell>
                <mxCell id="45" value="subClass" style="rounded=1;whiteSpace=wrap;html=1;fillColor=default;" vertex="1" parent="1">
                    <mxGeometry x="550" y="150" width="60" height="50" as="geometry"/>
                </mxCell>
                <mxCell id="50" style="edgeStyle=none;html=1;entryX=0.5;entryY=1;entryDx=0;entryDy=0;endArrow=block;endFill=0;" edge="1" parent="1" source="46" target="48">
                    <mxGeometry relative="1" as="geometry"/>
                </mxCell>
                <mxCell id="46" value="subClass" style="rounded=1;whiteSpace=wrap;html=1;fillColor=default;" vertex="1" parent="1">
                    <mxGeometry x="620" y="150" width="60" height="50" as="geometry"/>
                </mxCell>
                <mxCell id="52" style="edgeStyle=none;html=1;endArrow=none;endFill=0;" edge="1" parent="1" source="47">
                    <mxGeometry relative="1" as="geometry">
                        <mxPoint x="650" y="140" as="targetPoint"/>
                        <Array as="points">
                            <mxPoint x="720" y="140"/>
                        </Array>
                    </mxGeometry>
                </mxCell>
                <mxCell id="47" value="subClass" style="rounded=1;whiteSpace=wrap;html=1;fillColor=default;" vertex="1" parent="1">
                    <mxGeometry x="690" y="150" width="60" height="50" as="geometry"/>
                </mxCell>
                <mxCell id="48" value="superClass" style="rounded=1;whiteSpace=wrap;html=1;fillColor=default;" vertex="1" parent="1">
                    <mxGeometry x="610" y="60" width="80" height="60" as="geometry"/>
                </mxCell>
                <mxCell id="53" value="Class hierarchy system" style="text;html=1;strokeColor=none;fillColor=none;align=left;verticalAlign=middle;whiteSpace=wrap;rounded=0;" vertex="1" parent="1">
                    <mxGeometry x="565" y="20" width="170" height="30" as="geometry"/>
                </mxCell>
            </root>
        </mxGraphModel>
    </diagram>
</mxfile>